<svg id="Layer_1" data-name="Layer 1" xmlns="http://www.w3.org/2000/svg" viewBox="0 0 116.28 37.79"><defs><style>.cls-1{fill:#f9a13e;}.cls-2{fill:#fff;}</style></defs><title>brig-logo</title><rect class="cls-1" x="16.57" y="16.57" width="4.67" height="4.67" transform="translate(-7.83 18.91) rotate(-45)"/><rect class="cls-2" x="6.19" y="9.21" width="4.67" height="19.43" transform="translate(-10.89 11.57) rotate(-45)"/><rect class="cls-2" x="26.96" y="9.21" width="4.67" height="19.38" transform="translate(-4.78 26.25) rotate(-45)"/><polygon class="cls-2" points="13.72 0 10.42 3.31 15.61 8.5 10.4 13.71 13.7 17.02 27.41 3.32 24.1 0.01 18.92 5.19 13.72 0"/><polygon class="cls-2" points="27.4 24.09 24.09 20.79 10.39 34.49 13.7 37.79 18.91 32.58 24.12 37.78 27.42 34.48 22.22 29.27 27.4 24.09"/><rect class="cls-2" x="32.15" y="11.36" width="4.67" height="4.67" transform="translate(0.41 28.4) rotate(-45)"/><rect class="cls-2" x="0.97" y="21.78" width="4.67" height="4.67" transform="translate(-16.08 9.4) rotate(-45)"/><path class="cls-2" d="M70.39,16.89V31h5.14V16.89a1,1,0,0,1,1-1h8.1V10.77H76.5a6.12,6.12,0,0,0-6.11,6.12" transform="translate(0)"/><rect class="cls-2" x="87.28" y="10.77" width="5.14" height="20.24"/><path class="cls-2" d="M111.14,25.87H101.2a1,1,0,0,1-1-1v-8a1,1,0,0,1,1-1h9.94ZM101.2,10.78a6.1,6.1,0,0,0-6.1,6V25a6.1,6.1,0,0,0,6.1,6h9.93v5.07h5.14V31h0V10.78Z" transform="translate(0)"/><path class="cls-2" d="M51.66,15.92H61.6a1,1,0,0,1,1,1v8a1,1,0,0,1-1,1H51.66ZM61.6,31a6.12,6.12,0,0,0,6.11-6V16.8a6.12,6.12,0,0,0-6.11-6H51.67V5.71H46.53v5.05h0V31Z" transform="translate(0)"/></svg>