<svg id="Layer_1" data-name="Layer 1" xmlns="http://www.w3.org/2000/svg" xmlns:xlink="http://www.w3.org/1999/xlink" viewBox="0 0 25 35.33" width="25" height="35.33"><defs><style>.cls-1{fill:none;}.cls-2{clip-path:url(#clip-path);}.cls-3{fill:#ffffff;}</style><clipPath id="clip-path" transform="translate(0 0)"><rect class="cls-1" width="25" height="35.33"/></clipPath></defs><title>icon1</title><g class="cls-2"><path class="cls-3" d="M12.22,35.3s-5.54.54-8.92-2.56S0,24.06,0,24.06s5.54-.54,8.92,2.56,3.3,8.67,3.3,8.67" transform="translate(0 0)"/><path class="cls-3" d="M12.78,35.3s5.54.54,8.92-2.56S25,24.06,25,24.06s-5.54-.54-8.92,2.56-3.3,8.67-3.3,8.67" transform="translate(0 0)"/><path class="cls-3" d="M12.31,16.35s-3.8.37-6.11-1.76S3.93,8.64,3.93,8.64,7.73,8.28,10,10.4s2.26,5.94,2.26,5.94" transform="translate(0 0)"/><path class="cls-3" d="M12.69,16.35s3.8.37,6.11-1.76,2.26-5.95,2.26-5.95S17.27,8.28,15,10.4s-2.26,5.94-2.26,5.94" transform="translate(0 0)"/><path class="cls-3" d="M12.28,25s-4.33.42-7-2-2.58-6.77-2.58-6.77,4.33-.42,7,2S12.28,25,12.28,25" transform="translate(0 0)"/><path class="cls-3" d="M12.72,25s4.33.42,7-2,2.58-6.77,2.58-6.77-4.33-.42-7,2S12.72,25,12.72,25" transform="translate(0 0)"/><path class="cls-3" d="M12.17,11.38S15,8.83,15,5.69,12.16,0,12.16,0,9.32,2.55,9.32,5.69s2.85,5.69,2.85,5.69" transform="translate(0 0)"/></g></svg>