<svg id="Layer_1" data-name="Layer 1" xmlns="http://www.w3.org/2000/svg" xmlns:xlink="http://www.w3.org/1999/xlink" viewBox="0 0 36 34.2"><defs><style>.cls-1{fill:none;}.cls-2{clip-path:url(#clip-path);}</style><clipPath id="clip-path" transform="translate(0 0)"><rect class="cls-1" width="36" height="34.2"/></clipPath></defs><title>icon3</title><g class="cls-2"><path d="M36,18.62a1.58,1.58,0,0,0-.06-.19l0-.06a1.49,1.49,0,0,0-.12-.23l0,0-.13-.16-.05-.07-.16-.14,0,0-.21-.11-7.32-3.37V5.34a1.51,1.51,0,0,0,0-.27V5a1.56,1.56,0,0,0-.06-.19l0-.06a1.51,1.51,0,0,0-.15-.22l0,0-.13-.16-.05-.06-.16-.14,0,0L26.89,4,18.62.14a1.53,1.53,0,0,0-1.28,0L9.07,4l-.21.11,0,0-.16.14-.05.06-.13.16,0,0a1.48,1.48,0,0,0-.12.23l0,.06A1.49,1.49,0,0,0,8.24,5v.08a1.51,1.51,0,0,0,0,.27v8.86L.87,17.59l-.21.11,0,0-.16.14-.06.06-.13.16,0,0a1.53,1.53,0,0,0-.12.23l0,.06a1.51,1.51,0,0,0-.06.19v.08A1.51,1.51,0,0,0,0,19v9.88a1.53,1.53,0,0,0,.89,1.39l8.27,3.82a1.53,1.53,0,0,0,1.28,0L18,30.57l7.57,3.49a1.53,1.53,0,0,0,1.28,0l8.27-3.82A1.53,1.53,0,0,0,36,28.85V19a1.54,1.54,0,0,0,0-.27l0-.07M8.25,30.29,3,27.88V21.36l5.22,2.4Zm1.53-9.18L5.16,19l4.52-2.08L14.3,19Zm6.69,6.8L11.3,30.29V23.76l5.16-2.38Zm0-11.25-5.22-2.4V7.72l5.22,2.41ZM18,7.47,13.36,5.34,18,3.21l4.62,2.13Zm6.75.25v6.53l-5.22,2.4V10.13Zm-.06,22.56-5.16-2.38V21.38l5.16,2.38Zm1.53-9.18L21.67,19l4.62-2.13L30.82,19Zm6.74,6.77-5.22,2.4V23.76l5.22-2.4Z" transform="translate(0 0)"/></g></svg>