<svg id="Layer_1" data-name="Layer 1" xmlns="http://www.w3.org/2000/svg" xmlns:xlink="http://www.w3.org/1999/xlink" viewBox="0 0 30 32.1"  width="30" height="32.1"><defs><style>.cls-1{fill:none;}.cls-2{clip-path:url(#clip-path);}.cls-3{fill:#171717;}</style><clipPath id="clip-path" transform="translate(0 0)"><rect class="cls-1" width="30" height="32.1"/></clipPath></defs><title>icon5</title><g class="cls-2"><path class="cls-3" d="M29.23,28,19.7,14.6V4.33A2,2,0,0,0,21,2.47V2a2,2,0,0,0-2-2H11A2,2,0,0,0,9,2v.47a2,2,0,0,0,1.3,1.86V14.6L.77,28C-.82,30.26.13,32.1,2.88,32.1H27.12c2.75,0,3.7-1.83,2.1-4.07m-3.42,1.6H4.16c-.7,0-.94-.47-.54-1l6.4-9h9.91l6.4,9c.41.57.16,1-.54,1" transform="translate(0 0)"/><path class="cls-3" d="M14.32,22.42a1.76,1.76,0,1,1-1.76-1.76,1.76,1.76,0,0,1,1.76,1.76" transform="translate(0 0)"/><path class="cls-3" d="M18.44,22.81a1.31,1.31,0,1,1-1.31-1.31,1.31,1.31,0,0,1,1.31,1.31" transform="translate(0 0)"/><path class="cls-3" d="M16.78,27a1.19,1.19,0,1,1-1.19-1.19A1.2,1.2,0,0,1,16.78,27" transform="translate(0 0)"/></g></svg>