<svg id="Layer_1" data-name="Layer 1" xmlns="http://www.w3.org/2000/svg" xmlns:xlink="http://www.w3.org/1999/xlink" viewBox="0 0 28 28.13" width="28" height="28.13"><defs><style>.cls-1{fill:none;}.cls-2{clip-path:url(#clip-path);}</style><clipPath id="clip-path" transform="translate(0 0)"><rect class="cls-1" width="28" height="28.13"/></clipPath></defs><title>icon4</title><g class="cls-2"><path d="M28,9l-7.11,3.06c-.12-.26-.22-.51-.35-.74A6.64,6.64,0,0,0,15.1,7.8a6.71,6.71,0,0,0-5,1.46,6.12,6.12,0,0,0-1.8,7.32A6.34,6.34,0,0,0,11,19.47a7,7,0,0,0,6.47.24,6,6,0,0,0,2.66-2.29l.13-.19,7.47,2.86c-.2.35-.39.69-.6,1a15.09,15.09,0,0,1-10.23,6.82A14.85,14.85,0,0,1,6,25.42,14.47,14.47,0,0,1,3,22.66,13.51,13.51,0,0,1,.29,16.87,13.09,13.09,0,0,1,0,13.26a14.08,14.08,0,0,1,1.9-6.19A13.89,13.89,0,0,1,4.85,3.56,14.43,14.43,0,0,1,11.69.28,14,14,0,0,1,15.07,0a14.59,14.59,0,0,1,8.59,3.2A13.82,13.82,0,0,1,28,9" transform="translate(0 0)"/></g></svg>