<?xml version="1.0" encoding="utf-8"?>
<!-- Generator: Adobe Illustrator 22.1.0, SVG Export Plug-In . SVG Version: 6.00 Build 0)  -->
<svg version="1.1" id="Layer_1" xmlns="http://www.w3.org/2000/svg" xmlns:xlink="http://www.w3.org/1999/xlink" x="0px" y="0px"
	 viewBox="0 0 28 28.1" style="enable-background:new 0 0 28 28.1;" xml:space="preserve">
<style type="text/css">
	.st0{clip-path:url(#SVGID_2_);}
	.st1{fill:#FFFFFF;}
</style>
<title>icon4</title>
<g>
	<defs>
		<rect id="SVGID_1_" width="28" height="28.1"/>
	</defs>
	<clipPath id="SVGID_2_">
		<use xlink:href="#SVGID_1_"  style="overflow:visible;"/>
	</clipPath>
	<g class="st0">
		<path class="st1" d="M28,9l-7.1,3.1c-0.1-0.3-0.2-0.5-0.4-0.7c-1.1-2-3.1-3.4-5.4-3.5c-1.8-0.2-3.6,0.3-5,1.5
			c-2.2,1.7-3,4.8-1.8,7.3c0.6,1.2,1.5,2.2,2.7,2.9c2,1.1,4.4,1.2,6.5,0.2c1.1-0.5,2-1.3,2.7-2.3l0.1-0.2l7.5,2.9
			c-0.2,0.4-0.4,0.7-0.6,1c-2.3,3.6-6,6.1-10.2,6.8c-3.8,0.6-7.7-0.3-10.9-2.5c-1.1-0.8-2.1-1.7-3-2.8C1.6,21,0.7,19,0.3,16.9
			C0,15.7-0.1,14.5,0,13.3C0.1,11.1,0.8,9,1.9,7.1c0.8-1.3,1.8-2.5,2.9-3.5c1.9-1.7,4.3-2.8,6.8-3.3C12.8,0.1,13.9,0,15.1,0
			c3.1,0.1,6.1,1.2,8.6,3.2C25.6,4.7,27.1,6.7,28,9"/>
	</g>
</g>
</svg>
