<svg id="Layer_1" data-name="Layer 1" xmlns="http://www.w3.org/2000/svg" xmlns:xlink="http://www.w3.org/1999/xlink" viewBox="0 0 69.76 73.78"><defs><style>.cls-1{fill:none;}.cls-2{fill:#f9a13e;}.cls-3{fill:#fff;}.cls-4{clip-path:url(#clip-path);}</style><clipPath id="clip-path" transform="translate(0 0)"><rect class="cls-1" width="69.76" height="73.78"/></clipPath></defs><title>logo-footer</title><rect class="cls-2" x="32.55" y="16.57" width="4.67" height="4.67" transform="translate(-3.15 30.21) rotate(-45)"/><rect class="cls-3" x="22.16" y="9.21" width="4.67" height="19.43" transform="translate(-6.21 22.87) rotate(-45)"/><rect class="cls-3" x="42.94" y="9.21" width="4.67" height="19.38" transform="translate(-0.1 37.55) rotate(-45)"/><polygon class="cls-3" points="29.7 0 26.4 3.31 31.59 8.5 26.38 13.71 29.68 17.02 43.38 3.32 40.08 0.01 34.9 5.19 29.7 0"/><polygon class="cls-3" points="43.38 24.09 40.07 20.79 26.37 34.49 29.68 37.79 34.89 32.58 40.1 37.78 43.4 34.48 38.2 29.27 43.38 24.09"/><rect class="cls-3" x="48.13" y="11.36" width="4.67" height="4.67" transform="translate(5.09 39.7) rotate(-45)"/><rect class="cls-3" x="16.95" y="21.78" width="4.67" height="4.67" transform="translate(-11.4 20.7) rotate(-45)"/><g class="cls-4"><path class="cls-3" d="M23.87,54.58V68.71H29V54.58a1,1,0,0,1,1-1h8.1V48.46H30a6.12,6.12,0,0,0-6.11,6.11" transform="translate(0 0)"/></g><rect class="cls-3" x="40.76" y="48.47" width="5.14" height="20.24"/><g class="cls-4"><path class="cls-3" d="M64.62,63.56H54.68a1,1,0,0,1-1-1v-8a1,1,0,0,1,1-1h9.94Zm-9.94-15.1a6.12,6.12,0,0,0-6.11,6v8.19a6.12,6.12,0,0,0,6.11,6h9.93v5.07h5.14V68.72h0V48.47Z" transform="translate(0 0)"/><path class="cls-3" d="M5.14,53.61h9.94a1,1,0,0,1,1,1v8a1,1,0,0,1-1,1H5.14ZM15.08,68.7a6.12,6.12,0,0,0,6.11-6V54.49a6.12,6.12,0,0,0-6.11-6H5.15V43.4H0v5.06H0V68.7Z" transform="translate(0 0)"/></g></svg>