<?xml version="1.0" encoding="utf-8"?>
<!-- Generator: Adobe Illustrator 21.0.0, SVG Export Plug-In . SVG Version: 6.00 Build 0)  -->
<svg version="1.1" id="Layer_1" xmlns="http://www.w3.org/2000/svg" xmlns:xlink="http://www.w3.org/1999/xlink" x="0px" y="0px"
	 viewBox="0 0 37.8 37.8" width="37.8" height="37.8" style="enable-background:new 0 0 37.8 37.8;" xml:space="preserve">
<g>
	
		<rect x="16.6" y="16.6" transform="matrix(0.7071 -0.7071 0.7071 0.7071 -7.8332 18.9066)" style="fill:#F9A13E;" width="4.7" height="4.7"/>
	
		<rect x="6.2" y="9.2" transform="matrix(0.7071 -0.7071 0.7071 0.7071 -10.8884 11.5704)" style="fill:#FFFFFF;" width="4.7" height="19.4"/>
	
		<rect x="27" y="9.2" transform="matrix(0.7071 -0.7071 0.7071 0.7071 -4.7832 26.2512)" style="fill:#FFFFFF;" width="4.7" height="19.4"/>
	<polygon style="fill:#FFFFFF;" points="13.7,0 10.4,3.3 15.6,8.5 10.4,13.7 13.7,17 27.4,3.3 24.1,0 18.9,5.2 	"/>
	<polygon style="fill:#FFFFFF;" points="27.4,24.1 24.1,20.8 10.4,34.5 13.7,37.8 18.9,32.6 24.1,37.8 27.4,34.5 22.2,29.3 	"/>
	
		<rect x="32.2" y="11.4" transform="matrix(0.7071 -0.7071 0.7071 0.7071 0.4141 28.3995)" style="fill:#FFFFFF;" width="4.7" height="4.7"/>
	
		<rect x="1" y="21.8" transform="matrix(0.7071 -0.7071 0.7071 0.7071 -16.0814 9.4026)" style="fill:#FFFFFF;" width="4.7" height="4.7"/>
</g>
</svg>
