<?xml version="1.0" encoding="utf-8"?>
<!-- Generator: Adobe Illustrator 21.0.0, SVG Export Plug-In . SVG Version: 6.00 Build 0)  -->
<svg version="1.1" id="Layer_1" xmlns="http://www.w3.org/2000/svg" xmlns:xlink="http://www.w3.org/1999/xlink" x="0px" y="0px"
	 viewBox="0 0 49.4 56.4" style="enable-background:new 0 0 49.4 56.4;" xml:space="preserve">
<g>
	<defs>
		<rect id="SVGID_1_" y="0" width="49.4" height="56.4"/>
	</defs>
	<clipPath id="SVGID_2_">
		<use xlink:href="#SVGID_1_"  style="overflow:visible;"/>
	</clipPath>
	<path style="clip-path:url(#SVGID_2_);fill:#231F20;" d="M33.1,56.4H16.3c-3.8,0-7.1-2.9-7.5-6.7L5.2,19.7
		c-0.1-0.6,0.1-1.2,0.5-1.6c0.4-0.4,1-0.7,1.5-0.7h35c0.6,0,1.2,0.3,1.5,0.7c0.4,0.4,0.6,1,0.5,1.6l-3.6,30.1
		C40.2,53.6,37,56.4,33.1,56.4 M9.6,21.5l3.3,27.8c0.2,1.7,1.7,3,3.4,3h16.9c1.7,0,3.2-1.3,3.4-3l3.3-27.8H9.6z"/>
	<path style="clip-path:url(#SVGID_2_);fill:#231F20;" d="M43,21.5H6.4c-1.8,0-3.5-1-4.7-2.7c-1.6-2.2-2.1-5.2-1.3-7.4
		c0.9-2.7,3.3-4.4,6.1-4.4H43c2.7,0,5.2,1.7,6,4.3c0.8,2.3,0.3,5.3-1.3,7.5C46.5,20.5,44.8,21.5,43,21.5 M6.4,11.1
		c-1,0-1.8,0.6-2.1,1.5c-0.4,1.1,0,2.7,0.8,3.8c0.4,0.6,0.9,1,1.3,1H43c0.4,0,0.9-0.4,1.3-1c0.8-1.1,1.1-2.7,0.8-3.7
		c-0.3-1-1.2-1.6-2.2-1.6H6.4z"/>
	<path style="clip-path:url(#SVGID_2_);fill:#231F20;" d="M35.9,9.8H13.5c-0.6,0-1.1-0.3-1.4-0.7c-0.3-0.5-0.4-1-0.2-1.6l2.3-5.5
		C15,0.2,17.7,0,19.3,0h10.8c1.6,0,4.3,0.2,5,1.9l2.3,5.5C37.6,8,37.5,8.6,37.2,9C36.9,9.5,36.4,9.8,35.9,9.8 M16,6.4h17.4l-1.2-2.9
		c-0.4-0.1-1.1-0.3-2.1-0.3H19.3c-1,0-1.8,0.1-2.1,0.3L16,6.4z"/>
	<path style="clip-path:url(#SVGID_2_);fill:#231F20;" d="M18,47.1c-0.9,0-1.6-0.7-1.7-1.5l-1.7-24.8c-0.1-0.9,0.6-1.7,1.5-1.8
		c0.9-0.1,1.7,0.6,1.8,1.5l1.7,24.8c0.1,0.9-0.6,1.7-1.5,1.8C18.1,47.1,18.1,47.1,18,47.1"/>
	<path style="clip-path:url(#SVGID_2_);fill:#231F20;" d="M31.9,42.6C31.9,42.6,31.9,42.6,31.9,42.6c-1,0-1.7-0.8-1.7-1.7l0.9-20.4
		c0-0.9,0.8-1.6,1.7-1.6c0.9,0,1.6,0.8,1.6,1.7L33.6,41C33.5,41.9,32.8,42.6,31.9,42.6"/>
</g>
</svg>
